<svg width="23" height="22" viewBox="0 0 23 22" fill="none" xmlns="http://www.w3.org/2000/svg">
<g clip-path="url(#clip0_503_109)">
<path d="M18.7511 13.1993H13.0977V18.0542H18.7511V13.1993Z" fill="#565757"/>
<path d="M10.885 13.2728H4.24854V14.0102H10.885V13.2728Z" fill="#565757"/>
<path d="M10.885 17.2433H4.24854V17.9807H10.885V17.2433Z" fill="#565757"/>
<path d="M10.885 15.2582H4.24854V15.9956H10.885V15.2582Z" fill="#565757"/>
<path d="M18.3934 0.000366211H4.60695C2.3385 0.00075293 0.500688 1.83891 0.5 4.10702V17.156C0.501074 19.8313 2.66833 21.9993 5.34438 22H17.656C20.3316 21.9993 22.4993 19.8316 22.5 17.156V4.10702C22.4997 1.83891 20.6615 0.00075293 18.3934 0.000366211ZM20.4721 17.156C20.4717 17.9359 20.1581 18.6351 19.6472 19.1472C19.1352 19.6581 18.4359 19.9717 17.656 19.9721H5.34438C4.5645 19.9717 3.86484 19.6581 3.35287 19.1472C2.84188 18.6351 2.52864 17.9359 2.52795 17.156V5.10041H20.4721V17.156H20.4721Z" fill="#565757"/>
<path d="M4.32237 11.5117H5.80836C6.65527 11.5117 7.16798 11.143 7.16798 10.371C7.16798 9.90465 6.90299 9.5817 6.64376 9.48373V9.47222C6.90303 9.32819 7.09888 9.0632 7.09888 8.63725C7.09888 8.01467 6.70138 7.59448 5.84909 7.59448H4.32237C4.28817 7.59448 4.26514 7.61751 4.26514 7.65206V11.4537C4.26514 11.4886 4.28817 11.5117 4.32237 11.5117ZM5.11205 8.31425C5.11205 8.29156 5.12284 8.2797 5.1466 8.2797H5.74575C6.06802 8.2797 6.25816 8.44677 6.25816 8.73449C6.25816 9.02289 6.06802 9.19571 5.74575 9.19571H5.1466C5.12284 9.19571 5.11205 9.1842 5.11205 9.16117V8.31425ZM5.11205 9.88089C5.11205 9.8582 5.12284 9.84673 5.1466 9.84673H5.79113C6.1375 9.84673 6.32149 10.0368 6.32149 10.3368C6.32149 10.6417 6.1375 10.8265 5.79113 10.8265H5.1466C5.12284 10.8265 5.11205 10.8146 5.11205 10.7916V9.88089Z" fill="#565757"/>
<path d="M8.29947 11.5117H10.852C10.8862 11.5117 10.9092 11.4886 10.9092 11.4537V10.8146C10.9092 10.7797 10.8862 10.757 10.852 10.757H9.12361C9.10023 10.757 9.08906 10.7455 9.08906 10.7221V7.65209C9.08906 7.61754 9.06637 7.59451 9.03144 7.59451H8.29942C8.26483 7.59451 8.24219 7.61754 8.24219 7.65209V11.4538C8.24219 11.4886 8.26488 11.5117 8.29947 11.5117Z" fill="#565757"/>
<path d="M13.0773 11.5747C13.7632 11.5747 14.3044 11.2582 14.5061 10.6244C14.5925 10.3537 14.6152 10.1347 14.6152 9.55286C14.6152 8.97098 14.5925 8.75205 14.5061 8.48126C14.3044 7.84795 13.7632 7.53105 13.0773 7.53105C12.3917 7.53105 11.8502 7.84795 11.6489 8.48126C11.5621 8.75205 11.5391 8.97098 11.5391 9.55286C11.5391 10.1347 11.5621 10.3537 11.6489 10.6244C11.8502 11.2582 12.3917 11.5747 13.0773 11.5747ZM12.4608 8.71175C12.5472 8.441 12.755 8.2797 13.0773 8.2797C13.3999 8.2797 13.6073 8.441 13.6937 8.71175C13.7398 8.85036 13.757 9.03977 13.757 9.5529C13.757 10.0653 13.7398 10.2557 13.6937 10.3937C13.6073 10.6648 13.3999 10.8265 13.0773 10.8265C12.755 10.8265 12.5472 10.6648 12.4608 10.3937C12.4151 10.2557 12.3974 10.0653 12.3974 9.5529C12.3974 9.03977 12.4151 8.85036 12.4608 8.71175Z" fill="#565757"/>
<path d="M17.1701 11.5747C17.8611 11.5747 18.4027 11.2236 18.5989 10.5952C18.6676 10.3825 18.6961 10.0598 18.6961 9.71416V9.39117C18.6961 9.35731 18.6731 9.33389 18.6389 9.33389H17.2911C17.2562 9.33389 17.2331 9.35731 17.2331 9.39117V9.94495C17.2331 9.97915 17.2562 10.0022 17.2911 10.0022H17.8207C17.8438 10.0022 17.8553 10.0141 17.8553 10.0368C17.8553 10.2034 17.838 10.3248 17.8092 10.4231C17.7285 10.682 17.4751 10.8264 17.1813 10.8264C16.8414 10.8264 16.6278 10.6647 16.5414 10.3936C16.4957 10.2557 16.4784 10.0652 16.4784 9.55286C16.4784 9.03977 16.4957 8.85578 16.5414 8.7175C16.6278 8.44672 16.8356 8.27965 17.1701 8.27965C17.4924 8.27965 17.6879 8.41793 17.8438 8.68291C17.8553 8.7117 17.8841 8.72326 17.9248 8.7117L18.5409 8.45247C18.5751 8.4352 18.5816 8.40065 18.5639 8.36572C18.3792 7.89328 17.9014 7.53105 17.1701 7.53105C16.4726 7.53105 15.9311 7.84795 15.7295 8.48126C15.643 8.75205 15.6196 8.97098 15.6196 9.55286C15.6196 10.1347 15.643 10.3537 15.7295 10.6244C15.9311 11.2582 16.4727 11.5747 17.1701 11.5747Z" fill="#565757"/>
</g>
<defs>
<clipPath id="clip0_503_109">
<rect width="22" height="22" fill="white" transform="translate(0.5)"/>
</clipPath>
</defs>
</svg>
