<svg width="40" height="39" viewBox="0 0 40 39" fill="none" xmlns="http://www.w3.org/2000/svg">
<g clip-path="url(#clip0_551_379)">
<path d="M39.3781 3.38264H0.827148V28.4541H14.6827V27.2602H2.00725V4.57656H38.198V27.2602H16.6638L14.6875 31.6378H11.6451V35.6174H28.5603V31.6378H25.5179L24.0805 28.4541H39.3781V3.38264ZM24.7596 32.8316H27.3802V34.4234H12.8252V32.8316H22.7784V31.6378H15.9848L17.4221 28.4541H22.7831L24.7596 32.8316Z" fill="#362F2F"/>
<path d="M16.7212 12.3609L15.8866 11.5167L11.5356 15.9184L15.8866 20.3201L16.7212 19.4758L13.2046 15.9184L16.7212 12.3609Z" fill="#362F2F"/>
<path d="M24.3189 11.5167L23.4844 12.3609L27.001 15.9184L23.4844 19.4758L24.3189 20.3201L28.6699 15.9184L24.3189 11.5167Z" fill="#362F2F"/>
<path d="M21.4034 11.686L17.7349 19.6451L18.8043 20.1496L22.4729 12.1905L21.4034 11.686Z" fill="#362F2F"/>
<path d="M3.1875 5.7704V26.0663H37.018V5.7704H3.1875ZM35.8379 24.8725H4.3676V6.96432H35.8379V24.8725Z" fill="#362F2F"/>
</g>
<defs>
<clipPath id="clip0_551_379">
<rect width="38.551" height="39" fill="white" transform="translate(0.827148)"/>
</clipPath>
</defs>
</svg>
