<svg width="22" height="23" viewBox="0 0 22 23" fill="none" xmlns="http://www.w3.org/2000/svg">
<g clip-path="url(#clip0_503_96)">
<path fill-rule="evenodd" clip-rule="evenodd" d="M10.9965 0.507156C8.01005 0.507156 7.63557 0.519815 6.46267 0.573331C5.29222 0.626716 4.49285 0.812625 3.79339 1.08448C3.07026 1.36546 2.45702 1.74147 1.84564 2.3528C1.23431 2.96417 0.858305 3.57742 0.577325 4.30054C0.305468 5 0.11956 5.79938 0.0661746 6.96983C0.0126587 8.14273 0 8.51721 0 11.5038C0 14.4902 0.0126587 14.8646 0.0661746 16.0376C0.11956 17.208 0.305468 18.0074 0.577325 18.7068C0.858305 19.43 1.23431 20.0432 1.84564 20.6546C2.45702 21.2659 3.07026 21.6419 3.79339 21.923C4.49285 22.1947 5.29222 22.3806 6.46267 22.4341C7.63557 22.4875 8.01005 22.5002 10.9965 22.5002C13.983 22.5002 14.3575 22.4875 15.5304 22.4341C16.7008 22.3806 17.5002 22.1947 18.1997 21.923C18.9228 21.6419 19.536 21.2659 20.1474 20.6546C20.7587 20.0432 21.1348 19.43 21.4158 18.7068C21.6876 18.0074 21.8735 17.208 21.9269 16.0376C21.9804 14.8646 21.993 14.4902 21.993 11.5038C21.993 8.51721 21.9804 8.14273 21.9269 6.96983C21.8735 5.79938 21.6876 5 21.4158 4.30054C21.1348 3.57742 20.7587 2.96417 20.1474 2.3528C19.536 1.74147 18.9228 1.36546 18.1997 1.08448C17.5002 0.812625 16.7008 0.626716 15.5304 0.573331C14.3575 0.519815 13.983 0.507156 10.9965 0.507156ZM10.9965 2.48851C13.9327 2.48851 14.2806 2.49973 15.4401 2.55263C16.5122 2.60152 17.0945 2.78066 17.4819 2.93126C17.9953 3.13075 18.3616 3.36903 18.7464 3.75386C19.1312 4.13864 19.3694 4.50496 19.569 5.01824C19.7195 5.40574 19.8987 5.988 19.9476 7.06015C20.0005 8.21968 20.0117 8.5675 20.0117 11.5038C20.0117 14.4398 20.0005 14.7877 19.9476 15.9472C19.8987 17.0193 19.7195 17.6016 19.569 17.9892C19.3694 18.5024 19.1312 18.8687 18.7464 19.2535C18.3616 19.6383 17.9953 19.8766 17.4819 20.0761C17.0945 20.2268 16.5122 20.4059 15.4401 20.4547C14.2808 20.5076 13.933 20.5189 10.9965 20.5189C8.06012 20.5189 7.71239 20.5076 6.55298 20.4547C5.48083 20.4059 4.89857 20.2268 4.51109 20.0761C3.9978 19.8766 3.63149 19.6383 3.24671 19.2535C2.86193 18.8687 2.62359 18.5024 2.42411 17.9892C2.27351 17.6016 2.09436 17.0193 2.04548 15.9472C1.99257 14.7877 1.98136 14.4398 1.98136 11.5038C1.98136 8.5675 1.99257 8.21968 2.04548 7.06015C2.09436 5.988 2.27351 5.40574 2.42411 5.01824C2.62359 4.50496 2.86188 4.13864 3.24671 3.75386C3.63149 3.36903 3.9978 3.13075 4.51109 2.93126C4.89857 2.78066 5.48083 2.60152 6.55298 2.55263C7.71253 2.49973 8.06034 2.48851 10.9965 2.48851ZM10.9965 15.1692C8.97211 15.1692 7.33102 13.5281 7.33102 11.5038C7.33102 9.47928 8.97211 7.83818 10.9965 7.83818C13.021 7.83818 14.6621 9.47928 14.6621 11.5038C14.6621 13.5281 13.021 15.1692 10.9965 15.1692ZM10.9965 5.85682C7.87783 5.85682 5.34967 8.38499 5.34967 11.5038C5.34967 14.6223 7.87783 17.1505 10.9965 17.1505C14.1152 17.1505 16.6434 14.6223 16.6434 11.5038C16.6434 8.38499 14.1152 5.85682 10.9965 5.85682ZM16.8665 6.95329C17.5953 6.95329 18.1861 6.36252 18.1861 5.63372C18.1861 4.90493 17.5953 4.31412 16.8665 4.31412C16.1377 4.31412 15.5469 4.90493 15.5469 5.63372C15.5469 6.36252 16.1377 6.95329 16.8665 6.95329Z" fill="#565757"/>
</g>
<defs>
<clipPath id="clip0_503_96">
<rect width="22" height="22" fill="white" transform="translate(0 0.5)"/>
</clipPath>
</defs>
</svg>
