<svg width="25" height="25" viewBox="0 0 25 25" fill="none" xmlns="http://www.w3.org/2000/svg">
<path d="M14.3962 8.35222C12.9851 7.96193 11.5149 7.96193 10.1037 8.35222C10.0236 8.37437 9.94375 8.39778 9.864 8.42244L9.86175 8.42317C9.8205 8.43612 9.77562 8.42794 9.74155 8.40129C9.69396 8.36425 9.64707 8.32838 9.60087 8.29364C8.11639 7.17742 7.34097 7.22727 7.14909 7.26452C7.11825 7.2705 7.09481 7.29352 7.08415 7.32305C7.08145 7.33052 7.07879 7.33798 7.07612 7.34545C6.77049 8.20632 6.7238 9.16017 6.94096 10.0531C6.95361 10.1051 6.96714 10.1569 6.98156 10.2084C6.98251 10.2118 6.98346 10.2151 6.98441 10.2185C6.99692 10.2628 6.98775 10.3104 6.95975 10.347C6.93842 10.3748 6.91742 10.4029 6.89676 10.4313C6.30599 11.2424 5.98634 12.2766 6.00045 13.3434C6.00045 17.6749 8.25495 18.6698 10.4187 18.9639L10.4635 18.9698C11.6684 19.1499 12.8234 19.1388 14.0244 18.9349L14.0547 18.9313C16.229 18.6674 18.4995 17.6984 18.4995 13.3434C18.5136 12.2766 18.194 11.2424 17.6032 10.4313C17.5842 10.4053 17.565 10.3794 17.5455 10.3538L17.544 10.3519C17.5137 10.3123 17.5037 10.2606 17.5172 10.2126C17.5321 10.1596 17.546 10.1065 17.5589 10.0531C17.7762 9.15764 17.7269 8.20095 17.4161 7.3397C17.4141 7.33442 17.4122 7.32914 17.4104 7.32387C17.3994 7.29379 17.3755 7.27035 17.344 7.26428C17.1512 7.22705 16.3801 7.17977 14.8991 8.29364C14.856 8.32606 14.8124 8.35944 14.768 8.39385C14.728 8.42514 14.6752 8.43453 14.6266 8.41958L14.6235 8.4186C14.548 8.39534 14.4722 8.37322 14.3962 8.35222Z" stroke="#565757" stroke-width="2" stroke-linecap="round" stroke-linejoin="round"/>
<path d="M1 12.25C1 2.98563 2.98563 1 12.25 1C21.5144 1 23.5 2.98563 23.5 12.25C23.5 21.5144 21.5144 23.5 12.25 23.5C2.98563 23.5 1 21.5144 1 12.25Z" stroke="#565757" stroke-width="2"/>
</svg>
