<svg width="60" height="60" viewBox="0 0 60 60" fill="none" xmlns="http://www.w3.org/2000/svg">
<path d="M52.5 16.875H48.8287V11.3662L41.25 11.25L41.2894 16.875H18.5156L18.6713 11.25L11.25 11.3662V16.9913L7.5 16.875C5.43 16.875 3.75 18.555 3.75 20.625V46.875C3.75 48.945 5.43 50.625 7.5 50.625H52.5C54.57 50.625 56.25 48.945 56.25 46.875V20.625C56.25 18.555 54.57 16.875 52.5 16.875ZM43.125 13.125H46.875V20.625H43.125V13.125ZM18.75 25.8975C21.015 25.8975 22.8525 28.3106 22.8525 31.2881C22.8525 34.2656 21.015 36.6788 18.75 36.6788C16.485 36.6788 14.6475 34.2656 14.6475 31.2881C14.6475 28.3106 16.485 25.8975 18.75 25.8975ZM13.125 13.125H16.875V20.625H13.125V13.125ZM10.6256 43.0275C10.6256 43.0275 11.07 39.4613 12.0806 38.7881C13.0912 38.115 15.9994 37.6669 15.9994 37.6669C15.9994 37.6669 17.8856 39.6825 18.6881 39.6825C19.4887 39.6825 21.375 37.6669 21.375 37.6669C21.375 37.6669 24.285 38.1131 25.2956 38.7881C26.4825 39.5794 26.7787 43.0275 26.7787 43.0275H10.6256ZM48.75 41.25H31.875V39.375H48.75V41.25ZM48.75 37.5H31.875V35.625H48.75V37.5ZM48.75 33.75H31.875V31.875H48.75V33.75ZM48.75 30H31.875V28.125H48.75V30Z" fill="#DD8560"/>
</svg>
